<svg width="85" height="17" viewBox="0 0 85 17" fill="none" xmlns="http://www.w3.org/2000/svg">
<g id="logo-ready-to-go 2" clip-path="url(#clip0_2309_711)">
<g id="Camada_1-2">
<g id="Camada_2-2">
<g id="Camada_1-3">
<path id="Caminho_19854" d="M45.2653 3.72989L41.0725 13.5651C40.177 15.6748 38.7374 16.1724 37.4104 16.1724C36.8892 16.182 36.3737 16.0836 35.8925 15.885C35.6081 15.75 35.3045 15.5398 35.4362 15.0596L35.7589 13.891C35.8715 13.5072 36.0625 13.3356 36.6124 13.5072C36.8128 13.5786 37.0267 13.6114 37.2386 13.6036C37.7007 13.6441 38.1341 13.3703 38.3002 12.9325L38.8672 11.7022L35.2052 3.72796C34.9589 3.18992 35.3198 2.84473 35.8696 2.84473H37.5594C38.1093 2.84473 38.4128 3.17064 38.6038 3.72796L40.4443 8.59541L42.2238 3.72796C42.4147 3.17257 42.7183 2.84473 43.2873 2.84473H44.5971C45.1508 2.84473 45.4906 3.18992 45.2634 3.72796L45.2653 3.72989Z" fill="white"/>
<path id="Caminho_19855" d="M53.2081 7.62932C53.2081 7.17999 53.2654 6.73258 53.3838 6.29868C53.6053 5.47329 54.0368 4.72312 54.6344 4.11951C54.9284 3.82253 55.2606 3.56604 55.6215 3.35584C55.99 3.14178 56.3833 2.97593 56.7938 2.86408C57.2215 2.74837 57.6645 2.68859 58.1093 2.69052C59.4019 2.6828 60.6449 3.19577 61.5613 4.11565C62.0043 4.56498 62.3594 5.09531 62.6057 5.67964C62.8654 6.29482 62.9952 6.95628 62.9895 7.62353C62.9895 8.07094 62.9322 8.51834 62.8139 8.95032C62.7012 9.36494 62.5351 9.76413 62.3213 10.1363C61.4525 11.6521 59.8449 12.5797 58.1112 12.572C57.6683 12.572 57.2253 12.5161 56.7957 12.4003C55.5661 12.0667 54.5179 11.2548 53.8764 10.144C53.6625 9.77184 53.4983 9.37458 53.3838 8.95803C53.2654 8.52413 53.2043 8.07672 53.2062 7.62739L53.2081 7.62932ZM55.927 7.62932C55.9232 7.94559 55.9747 8.25993 56.0759 8.55884C56.1714 8.83461 56.3165 9.08917 56.5074 9.30708C56.6964 9.51921 56.9275 9.68892 57.1852 9.80656C57.4678 9.93191 57.7733 9.99555 58.0807 9.99169C58.3824 9.99555 58.6802 9.93383 58.9551 9.80656C59.2091 9.68892 59.4344 9.51921 59.6177 9.30708C59.8029 9.08724 59.9461 8.83268 60.0339 8.55884C60.2287 7.95909 60.2287 7.31112 60.0339 6.71137C59.9423 6.43174 59.801 6.1714 59.6177 5.94384C59.2396 5.48101 58.6745 5.21873 58.0807 5.23031C57.7714 5.22645 57.4659 5.29202 57.1852 5.42122C56.9256 5.54465 56.6945 5.72399 56.5074 5.94384C56.3184 6.16947 56.1733 6.42981 56.0778 6.70944C55.9747 7.00449 55.9232 7.31691 55.9251 7.62932H55.927Z" fill="white"/>
<path id="Caminho_19856" d="M75.2205 7.6196C75.2205 7.17027 75.2777 6.72286 75.3961 6.28896C75.6176 5.4655 76.0491 4.71533 76.6467 4.11172C76.9407 3.81474 77.273 3.55825 77.6338 3.34805C78.0023 3.13399 78.3956 2.97007 78.8061 2.85822C79.2338 2.74058 79.6768 2.68273 80.1217 2.68466C81.4143 2.67694 82.6572 3.18991 83.5737 4.10979C84.0186 4.55913 84.3718 5.08945 84.6181 5.67378C84.8777 6.28896 85.0076 6.95042 85.0018 7.61767C85.0018 8.06508 84.9446 8.51248 84.8281 8.94446C84.7155 9.35908 84.5493 9.75634 84.3374 10.1285C83.4668 11.6405 81.861 12.5661 80.1293 12.5584C79.6863 12.5584 79.2434 12.5025 78.8138 12.3868C77.5842 12.0531 76.5341 11.2432 75.8944 10.1305C75.4553 9.36872 75.2262 8.50091 75.2281 7.6196H75.2224H75.2205ZM77.9374 7.6196C77.9336 7.93587 77.9851 8.25021 78.0863 8.54719C78.1799 8.82296 78.3269 9.07752 78.5178 9.29544C78.7069 9.50757 78.9379 9.6792 79.1956 9.79684C79.4782 9.92219 79.7837 9.98583 80.0911 9.98197C80.3928 9.98583 80.6906 9.92412 80.9656 9.79684C81.2195 9.6792 81.4448 9.5095 81.6281 9.29544C81.8152 9.07559 81.9565 8.82103 82.0443 8.54719C82.2391 7.94744 82.2391 7.3014 82.0443 6.70165C81.9527 6.42202 81.8114 6.16168 81.6281 5.93412C81.2501 5.47129 80.6849 5.20902 80.0911 5.22059C79.7818 5.21673 79.4763 5.2823 79.1956 5.41151C78.936 5.53493 78.7049 5.71428 78.5178 5.93412C78.3288 6.15975 78.1818 6.42009 78.0863 6.70165C77.9851 6.99671 77.9355 7.30719 77.9374 7.6196Z" fill="white"/>
<path id="Caminho_19857" d="M26.5102 3.12255C26.4758 3.04734 26.4262 2.9837 26.3612 2.93356C26.3078 2.87956 26.241 2.84292 26.1665 2.82942C26.1035 2.81592 26.0386 2.80821 25.9717 2.80628H24.8624C24.7861 2.80435 24.7078 2.81013 24.6314 2.82556C24.5799 2.83713 24.5302 2.8622 24.4939 2.90077C24.4481 2.95091 24.4138 3.00877 24.3889 3.07433C24.3565 3.14954 24.3145 3.25368 24.2667 3.37517L24.2114 3.54681C23.9345 3.35589 23.6386 3.1939 23.3293 3.06276C22.7259 2.80821 22.0806 2.68093 21.4276 2.68671C21.0114 2.68671 20.597 2.73492 20.1923 2.83713L20.1178 2.85642C19.9383 2.90463 19.7627 2.96248 19.5908 3.03191H19.5832L19.4973 3.06855C19.3083 3.14762 19.1231 3.24018 18.9455 3.34239C18.5846 3.55066 18.2524 3.80715 17.9584 4.10413C17.3608 4.70774 16.9293 5.45792 16.7078 6.28137C16.4748 7.15111 16.4748 8.06906 16.7078 8.94073C16.7307 9.02365 16.7555 9.10465 16.7822 9.18564C16.7899 9.21071 16.7994 9.23771 16.8071 9.26085C17.3283 10.7921 18.5694 11.9626 20.1197 12.3811C20.5474 12.4987 20.9904 12.5566 21.4333 12.5547C21.5173 12.5547 21.6013 12.5547 21.6854 12.5489C22.0386 12.5315 22.388 12.4756 22.7297 12.3811C23.1383 12.2693 23.5297 12.1034 23.8963 11.8894L23.9307 11.8681C23.9536 11.9318 23.9746 11.9916 23.9956 12.0494C24.0185 12.115 24.0529 12.1786 24.0968 12.2326C24.1388 12.2847 24.1923 12.3252 24.2534 12.3503C24.3336 12.3811 24.4214 12.3946 24.5073 12.3908H25.9756C26.0405 12.3908 26.1054 12.3811 26.1703 12.3676C26.3173 12.3213 26.4414 12.2172 26.514 12.0783C26.5445 11.9993 26.5579 11.9164 26.5579 11.8334V3.3636C26.5579 3.28068 26.5426 3.19968 26.5102 3.12255ZM19.4018 6.70178C19.4973 6.42215 19.6443 6.16181 19.8333 5.93425C20.0204 5.71248 20.2534 5.53506 20.5149 5.41163C20.5474 5.39621 20.5818 5.38078 20.6161 5.36728L20.6562 5.35185C20.8873 5.26893 21.1317 5.2265 21.376 5.22843C21.6949 5.2265 22.0118 5.29207 22.304 5.42128L22.3173 5.42706C22.5617 5.55048 22.7775 5.72212 22.9512 5.93425C23.1364 6.16181 23.2777 6.42215 23.3675 6.70178C23.5622 7.30153 23.5622 7.94757 23.3675 8.54732C23.2777 8.82116 23.1364 9.07572 22.9512 9.29557C22.7679 9.50963 22.5407 9.67933 22.2849 9.79697C22.0099 9.92232 21.7121 9.98596 21.4123 9.98017C21.1049 9.98403 20.7994 9.92232 20.5188 9.79697C20.261 9.67933 20.03 9.50963 19.841 9.29557C19.65 9.07765 19.503 8.82309 19.4095 8.54732C19.2052 7.9495 19.2052 7.2996 19.4095 6.70178H19.4056H19.4018Z" fill="white"/>
<path id="Caminho_19858" d="M75.8296 3.11467C75.7971 3.04717 75.7494 2.98739 75.6921 2.94111C75.6348 2.89482 75.5718 2.86011 75.5031 2.83504C75.4363 2.80997 75.3656 2.79647 75.295 2.79647H74.1857C74.1036 2.79454 74.0215 2.80804 73.9432 2.83504C73.8859 2.85818 73.8344 2.89482 73.7943 2.94303C73.7523 2.9951 73.7179 3.05489 73.6969 3.12045L73.6148 3.3538L73.5938 3.42129C73.3742 3.28437 73.1451 3.16481 72.9084 3.06453C72.3566 2.82925 71.7666 2.70198 71.1671 2.68848H71.0048C70.5618 2.68848 70.1189 2.7444 69.6912 2.86204C69.2807 2.97389 68.8873 3.13781 68.5189 3.35187C68.158 3.56014 67.8258 3.81663 67.5317 4.11361C67.2377 4.4106 66.9819 4.74422 66.7718 5.10677C66.621 5.36904 66.4931 5.64482 66.3938 5.93023C66.3518 6.04786 66.3155 6.16936 66.2811 6.29278C65.9279 7.58871 66.1055 8.97335 66.7718 10.1362C67.4115 11.2489 68.4616 12.0608 69.6912 12.3925C70.1189 12.5102 70.5618 12.568 71.0048 12.5661C71.4439 12.5661 71.8811 12.5102 72.305 12.3925C72.5647 12.3212 72.8186 12.2267 73.063 12.1129C73 12.3135 72.8912 12.4967 72.7461 12.6471C72.5838 12.8187 72.3947 12.9653 72.1885 13.0791C71.9747 13.1986 71.7437 13.2873 71.5069 13.3452C71.2778 13.403 71.043 13.4339 70.8081 13.4358C70.6745 13.4358 70.5236 13.4281 70.3613 13.4165C70.1914 13.403 70.0215 13.376 69.8554 13.3336C69.6835 13.2912 69.5174 13.2333 69.357 13.162C69.1986 13.0906 69.0535 12.9942 68.9294 12.8727C68.8129 12.7724 68.6716 12.7107 68.5189 12.6934C68.4501 12.6934 68.3833 12.7126 68.3241 12.7493C68.2535 12.7975 68.1885 12.8534 68.1313 12.919L67.4229 13.9044C67.337 14.0201 67.2874 14.159 67.2816 14.3036C67.2797 14.4001 67.3064 14.4965 67.3561 14.5775C67.4057 14.6585 67.4706 14.7279 67.5451 14.7838C67.7742 14.9863 68.0263 15.1599 68.2993 15.2987C68.5838 15.4472 68.8797 15.5687 69.1852 15.6632C69.4869 15.7577 69.7943 15.829 70.1055 15.8773C70.3919 15.9235 70.6802 15.9505 70.9704 15.9525C71.6291 15.9583 72.284 15.8464 72.9064 15.6227C74.094 15.2023 75.0411 14.2824 75.505 13.1022C75.7685 12.4369 75.8964 11.7272 75.885 11.0117V3.35765C75.885 3.27473 75.8697 3.19181 75.8334 3.1166L75.8296 3.11467ZM71.8544 9.79873C71.5795 9.92408 71.2816 9.98772 70.98 9.98386C70.6726 9.98772 70.3671 9.92601 70.0845 9.79873C69.8267 9.6811 69.5957 9.51139 69.4067 9.29733C69.2157 9.07941 69.0687 8.82486 68.9752 8.54909C68.9255 8.41602 68.8874 8.2791 68.8625 8.14025L68.8568 8.10168C68.832 7.94162 68.8186 7.78156 68.8186 7.61956C68.8167 7.30715 68.8663 6.99667 68.9675 6.70161C69.063 6.42199 69.21 6.16164 69.399 5.93409C69.5862 5.71231 69.8172 5.53489 70.0768 5.41147C70.3575 5.28033 70.663 5.21477 70.9723 5.22055C71.568 5.20705 72.1389 5.46933 72.5189 5.93409C72.7041 6.16164 72.8453 6.42199 72.9351 6.70161C73.1298 7.30137 73.1298 7.9474 72.9351 8.54716C72.8473 8.821 72.7041 9.07556 72.5189 9.2954C72.368 9.47089 72.1885 9.61746 71.9862 9.72931C71.9422 9.75438 71.9002 9.77559 71.8544 9.79873Z" fill="white"/>
<path id="Caminho_19859" d="M9.58612 3.72223L9.23099 5.14158C9.08207 5.66998 8.76321 5.78569 8.42526 5.65263C8.11787 5.54271 7.7971 5.47907 7.47061 5.46364C6.36512 5.46364 5.7656 6.20224 5.7656 7.31882V11.5383C5.7656 12.0879 5.46775 12.408 4.9045 12.408H3.36751C2.93409 12.4505 2.54841 12.1303 2.50641 11.6926C2.50068 11.6405 2.50068 11.5884 2.50641 11.5364V5.83969C2.50641 5.66998 2.43195 5.57549 2.3193 5.57549C2.13218 5.57549 1.90689 5.72591 1.70068 5.74519C1.55175 5.76448 1.32837 5.68734 1.21381 5.21679L0.950323 3.96522C0.81858 3.47346 0.912136 3.22662 1.32264 3.01834C1.76369 2.81007 2.24292 2.70015 2.7298 2.69629C3.70355 2.69629 4.64102 3.07234 5.05343 4.07707C5.64913 3.20733 6.53314 2.69629 7.76846 2.69629C8.2267 2.69629 8.68111 2.76571 9.11644 2.90456C9.43529 3.01834 9.73505 3.17069 9.58612 3.71838V3.72223Z" fill="white"/>
<path id="Caminho_19860" d="M17.061 6.03834C16.9503 5.66229 16.7918 5.3036 16.5875 4.96997C16.3813 4.63442 16.1369 4.32394 15.8582 4.04816C15.5775 3.76854 15.2625 3.52555 14.9207 3.32692C14.5789 3.12443 14.2123 2.96822 13.8305 2.86023C13.441 2.75031 13.0362 2.69438 12.6314 2.69438C12.1961 2.69245 11.7627 2.75224 11.3446 2.87566C10.9799 2.98365 10.6286 3.13407 10.3002 3.32692C10.3174 3.51976 10.2983 3.71454 10.2448 3.9016L9.88967 5.31324L9.88395 5.33252C9.8133 5.61601 9.66628 5.87442 9.46008 6.07884C9.24433 6.28519 8.95984 6.39896 8.6639 6.39704C8.50161 6.39704 8.34122 6.36618 8.18848 6.3064L8.10638 6.28133L8.09683 6.31797C7.98991 6.73645 7.93645 7.16649 7.93645 7.59847C7.93072 8.27343 8.06819 8.94454 8.33932 9.56165C8.59898 10.1498 8.96748 10.6821 9.42571 11.1295C10.3746 12.0455 11.6367 12.5527 12.9484 12.5469C13.5441 12.5508 14.1341 12.4331 14.6839 12.2056C15.2281 11.9799 15.7264 11.6579 16.1579 11.2548C16.2324 11.2008 16.2973 11.1353 16.3527 11.062C16.4081 10.9868 16.4367 10.8961 16.4348 10.8036C16.4348 10.7496 16.4271 10.6937 16.4138 10.6416C16.3909 10.576 16.3565 10.5162 16.3088 10.4661L15.5202 9.56165C15.4515 9.48837 15.377 9.4228 15.2968 9.36495C15.1861 9.28202 15.0353 9.27624 14.9169 9.34759C14.8443 9.39002 14.7775 9.44016 14.7126 9.49415C14.6076 9.59636 14.4873 9.68507 14.3594 9.7545C14.2066 9.84128 14.0462 9.91263 13.8801 9.97241C13.7007 10.0361 13.5193 10.0862 13.3322 10.1228C13.1508 10.1595 12.9656 10.1788 12.7823 10.1788C12.5684 10.1788 12.3565 10.1498 12.1484 10.0958C11.9231 10.0399 11.7112 9.94734 11.5164 9.82006C11.3102 9.68507 11.1326 9.50958 10.9933 9.30516C10.8329 9.06411 10.7317 8.78834 10.6954 8.50099H16.0567C16.2954 8.50678 16.5341 8.48942 16.7689 8.44507C16.9045 8.42193 17.0286 8.35057 17.1145 8.24065C17.1909 8.12301 17.231 7.98609 17.2291 7.84531C17.2367 7.6814 17.2405 7.46734 17.2405 7.20699C17.2386 6.80973 17.1794 6.41632 17.0649 6.03834H17.061ZM10.7718 6.36618C10.8558 6.18683 10.9589 6.01906 11.0811 5.86285C11.2071 5.69893 11.3503 5.55044 11.5088 5.4193C11.6634 5.29203 11.8353 5.18596 12.0186 5.10689C12.1961 5.02975 12.387 4.99118 12.5799 4.99118C12.8186 4.98733 13.0572 5.02204 13.2844 5.09532C13.4792 5.16089 13.6586 5.26117 13.8209 5.38845C13.9775 5.5138 14.1188 5.66036 14.2372 5.82428C14.3632 5.99592 14.4758 6.17719 14.5751 6.36618H10.7699H10.7718Z" fill="white"/>
<path id="Caminho_19861" d="M35.6539 0.341776C35.6195 0.272352 35.5718 0.210641 35.5126 0.160501C35.4515 0.110361 35.3847 0.0698628 35.3102 0.0428642C35.2453 0.0158657 35.1766 0.00236644 35.1059 0.000437976H33.4296C33.2673 -0.0111328 33.1088 0.0486496 32.9942 0.166286C32.8969 0.278137 32.8453 0.422772 32.8491 0.573192V3.15734C32.7842 3.12648 32.7174 3.09563 32.6506 3.0667C32.0472 2.81214 31.4 2.68486 30.747 2.69065C30.642 2.69065 30.5351 2.69065 30.4319 2.70029C29.6682 2.74657 28.9255 2.97028 28.2611 3.35404C27.9002 3.56424 27.568 3.8188 27.274 4.11579C26.9799 4.41277 26.726 4.74639 26.514 5.10895C26.4396 5.24008 26.3689 5.37315 26.3059 5.51199C25.8133 6.58808 25.7121 7.80687 26.0234 8.95238C26.073 9.13558 26.1341 9.31493 26.2047 9.49235C26.7661 10.9213 27.9632 11.9994 29.4353 12.3966C29.863 12.5143 30.3059 12.5721 30.7489 12.5702C31.5814 12.5702 32.4004 12.358 33.126 11.9492C33.1451 11.9936 33.1642 12.0341 33.1794 12.0746C33.2043 12.1382 33.2386 12.1999 33.2787 12.2539C33.315 12.3021 33.3627 12.3388 33.4162 12.3638C33.4888 12.3928 33.5689 12.4063 33.6472 12.4024H35.1078C35.5088 12.4024 35.7112 12.2096 35.7112 11.8239V0.573192C35.7112 0.492197 35.6921 0.41313 35.6558 0.341776H35.6539ZM28.6487 8.31598C28.641 8.28899 28.6353 8.26199 28.6296 8.23306C28.5876 8.03443 28.5666 7.83194 28.5685 7.62945C28.5685 7.31511 28.62 7.0027 28.725 6.70572C28.8205 6.42416 28.9694 6.16382 29.1603 5.93819C29.3494 5.71834 29.5804 5.53899 29.842 5.41557C30.1188 5.28444 30.4205 5.21887 30.7241 5.22272C30.9436 5.22272 31.1632 5.25165 31.3751 5.31336C31.4534 5.33843 31.5298 5.36929 31.6024 5.40593C31.8582 5.52935 32.0854 5.7087 32.2649 5.92854C32.4482 6.15803 32.5895 6.41837 32.6792 6.698C32.874 7.29775 32.874 7.94379 32.6792 8.54354C32.5914 8.81739 32.4482 9.07194 32.263 9.29179C32.0797 9.50392 31.8544 9.67555 31.6004 9.79319C31.3255 9.91854 31.0277 9.98218 30.726 9.97832C30.4186 9.98218 30.1131 9.92047 29.8305 9.79319C29.5728 9.67555 29.3417 9.50585 29.1527 9.29179C28.9618 9.07387 28.8148 8.81931 28.7212 8.54354C28.7136 8.52619 28.7078 8.5069 28.7021 8.48955C28.683 8.43169 28.6658 8.37384 28.6506 8.31213L28.6487 8.31598Z" fill="white"/>
<path id="Caminho_19862" d="M49.8706 1.35954C49.8611 1.22454 49.9165 1.09534 50.0196 1.01048C50.1532 0.915988 50.3002 0.840778 50.4549 0.786781L52.1484 0.190885C52.1733 0.1851 52.1981 0.183171 52.2229 0.183171H52.2859C52.4291 0.163887 52.5704 0.225598 52.6544 0.345162C52.7212 0.476298 52.7518 0.622862 52.7441 0.769425L52.7365 2.83867H53.7561C53.8993 2.83288 54.0387 2.88302 54.1437 2.98138C54.2506 3.09708 54.304 3.25329 54.2926 3.4095V4.86163C54.3079 5.02941 54.2525 5.19718 54.1437 5.32446C54.0387 5.42474 53.8993 5.47681 53.7561 5.47103H52.7346L52.7422 11.8195C52.7537 11.9815 52.6926 12.1397 52.578 12.2515C52.4501 12.3576 52.2878 12.4116 52.1236 12.4019H50.4415C50.0577 12.4019 49.8668 12.2091 49.8687 11.8234L49.8611 5.47488H49.0935C48.7117 5.47488 48.5208 5.27239 48.5208 4.86549V3.4095C48.5208 3.02766 48.7117 2.83674 49.0935 2.83674H49.8611L49.8668 1.35761L49.8706 1.35954Z" fill="white"/>
</g>
</g>
</g>
</g>
<defs>
<clipPath id="clip0_2309_711">
<rect width="84.105" height="16.174" fill="white" transform="translate(0.89502)"/>
</clipPath>
</defs>
</svg>
