<svg width="285" height="43" viewBox="0 0 285 43" fill="none" xmlns="http://www.w3.org/2000/svg">
<path d="M5.98303 16.6375C5.98303 17.4721 6.25235 17.6623 6.63295 17.8436C6.98017 17.9957 7.34965 18.0897 7.7258 18.1188H16.3729C18.2425 18.0136 20.0788 18.6357 21.5077 19.8597C22.2556 20.5735 22.8387 21.444 23.2216 22.4084C23.6044 23.3728 23.7758 24.4089 23.7224 25.4471C23.7602 26.4675 23.591 27.4856 23.2238 28.4389C22.8565 29.3921 22.3023 30.2581 21.5923 30.9853C20.8823 31.7126 20.032 32.2854 19.095 32.6703C18.158 33.0529 17.1519 33.2409 16.1392 33.2163L0.948352 33.2431C0.823709 33.2431 0.701293 33.2185 0.585553 33.1715C0.469813 33.1245 0.367428 33.0529 0.278398 32.9657C0.191593 32.8762 0.120368 32.7732 0.0736272 32.6569C0.0268862 32.5405 0.0024025 32.4174 0.0024025 32.2921V28.1569C0.0024025 28.0316 0.0268862 27.9086 0.0736272 27.7922C0.120368 27.6758 0.189367 27.5707 0.278398 27.4834C0.365203 27.3939 0.469814 27.3245 0.583328 27.2775C0.696842 27.2283 0.819257 27.2037 0.9439 27.2037L16.1103 27.1768C17.7529 27.1097 17.7529 25.9842 17.7529 25.4359C17.7974 25.0533 17.715 24.6684 17.5192 24.3373C17.2921 24.194 17.0273 24.1247 16.7602 24.1381L16.5665 24.1672L16.4797 24.1493H7.73248C6.47492 24.1224 5.23517 23.8338 4.09336 23.299C2.83802 22.7194 1.78079 21.7774 1.05296 20.5914C0.325138 19.4055 -0.037661 18.0293 0.0068543 16.6375C-0.0532413 15.2658 0.282849 13.9053 0.975061 12.7238C1.66727 11.5423 2.68445 10.5868 3.90194 9.97819C5.0126 9.41877 6.23009 9.1055 7.47207 9.06299H22.9545C23.2038 9.06299 23.4441 9.16368 23.62 9.34046C23.7958 9.51947 23.896 9.76114 23.896 10.0118V14.1492C23.896 14.402 23.7958 14.6437 23.62 14.8205C23.4441 14.9995 23.2038 15.098 22.9545 15.098H7.56332C7.02914 15.127 5.98303 15.2031 5.98303 16.6375Z" fill="#FFFEFE"/>
<path d="M51.2482 10.0272V14.1624C51.2482 14.2877 51.2237 14.4108 51.177 14.5271C51.1302 14.6435 51.0612 14.7486 50.9722 14.8359C50.8854 14.9254 50.7808 14.9948 50.6673 15.0418C50.5537 15.0888 50.4313 15.1134 50.3067 15.1134H43.2777C43.0284 15.1134 42.788 15.2141 42.6122 15.3908C42.4364 15.5699 42.3362 15.8115 42.3362 16.0621V32.274C42.3362 32.5268 42.2361 32.7685 42.0602 32.9453C41.8844 33.1243 41.644 33.2228 41.3947 33.2228H37.2993C37.05 33.2228 36.8096 33.1221 36.6338 32.9453C36.458 32.7663 36.3578 32.5246 36.3578 32.274V16.0621C36.3578 15.8093 36.2577 15.5676 36.0818 15.3908C35.906 15.2118 35.6656 15.1134 35.4163 15.1134H28.3829C28.1336 15.1134 27.8932 15.0127 27.7174 14.8337C27.5416 14.6547 27.4414 14.413 27.4414 14.1601V10.0249C27.4414 9.77208 27.5416 9.53042 27.7174 9.35364C27.8932 9.17463 28.1336 9.07617 28.3829 9.07617H50.3067C50.556 9.07617 50.7963 9.17687 50.9722 9.35364C51.1502 9.53266 51.2482 9.77432 51.2482 10.0272Z" fill="#FFFEFE"/>
<path d="M75.2976 21.1509C75.2976 23.5384 74.5965 25.8746 73.2833 27.8594C71.9701 29.8464 70.1027 31.3926 67.917 32.3078C65.7313 33.223 63.3275 33.4602 61.0082 32.9948C58.689 32.5294 56.5567 31.3792 54.8852 29.6898C53.2136 28.0003 52.074 25.85 51.6133 23.5071C51.1526 21.1643 51.3885 18.7364 52.2944 16.5301C53.2003 14.3238 54.7316 12.4374 56.6992 11.1105C58.6667 9.78356 60.9771 9.07422 63.3431 9.07422C66.5148 9.07422 69.5574 10.3474 71.7987 12.612C74.0379 14.8765 75.2976 17.9488 75.2976 21.1509ZM63.3386 27.1903C64.5205 27.1903 65.6779 26.8368 66.6617 26.1744C67.6455 25.5121 68.4111 24.5678 68.8652 23.4646C69.317 22.3614 69.4372 21.1464 69.2057 19.9761C68.9742 18.8036 68.4067 17.7272 67.5698 16.8837C66.7329 16.0378 65.669 15.4627 64.5071 15.23C63.3475 14.9973 62.1456 15.1159 61.0528 15.5724C59.9599 16.0289 59.0251 16.8031 58.3685 17.7966C57.7119 18.7901 57.3602 19.9582 57.3602 21.1531C57.3624 22.7553 57.9923 24.2881 59.1119 25.4203C60.2337 26.5503 61.7539 27.1881 63.3386 27.1903Z" fill="#FFFEFE"/>
<path d="M95.2203 24.892C95.1602 24.8271 95.1202 24.7488 95.1024 24.6616C95.0868 24.5743 95.0935 24.4848 95.1269 24.4042C95.1558 24.3214 95.2092 24.2498 95.2782 24.1961C95.3472 24.1424 95.4318 24.1111 95.5186 24.1044C96.6181 24.0059 97.6954 23.7285 98.7059 23.2787C99.9367 22.6678 100.963 21.7056 101.657 20.5129C102.354 19.3203 102.69 17.9486 102.623 16.5657C102.663 15.5655 102.499 14.5675 102.14 13.6344C101.782 12.7013 101.237 11.8532 100.54 11.1416C99.1132 9.81468 97.2436 9.07625 95.3049 9.07178H79.7669C79.6422 9.07178 79.5198 9.09639 79.4041 9.14338C79.2883 9.19037 79.1859 9.26198 79.0969 9.34925C79.0101 9.43875 78.9389 9.54393 78.8921 9.65805C78.8454 9.7744 78.8209 9.89747 78.8209 10.0228V14.5317C78.8209 14.6838 78.881 14.8293 78.9878 14.9367C79.0947 15.0441 79.2394 15.1045 79.3885 15.1045H95.3917C95.7412 15.1336 96.075 15.2589 96.3599 15.4648C96.5736 15.787 96.6738 16.1763 96.6404 16.5635C96.6671 16.7783 96.6448 16.9976 96.5758 17.2012C96.5046 17.4071 96.3889 17.5905 96.2353 17.7427C96.0817 17.8949 95.8947 18.009 95.6922 18.0761C95.4874 18.1433 95.2715 18.1612 95.0579 18.1298H79.4486C79.364 18.1298 79.2816 18.1455 79.206 18.1791C79.1281 18.2104 79.0591 18.2596 78.999 18.3178C78.9389 18.3782 78.8921 18.4476 78.861 18.5259C78.8298 18.6042 78.812 18.687 78.812 18.772V32.2763C78.812 32.4016 78.8365 32.5269 78.8832 32.641C78.93 32.7574 79.0012 32.8626 79.088 32.9498C79.1748 33.0394 79.2794 33.1087 79.3952 33.1557C79.5109 33.2027 79.6333 33.2273 79.758 33.2273H83.8467C83.9713 33.2273 84.0937 33.2027 84.2095 33.1557C84.3252 33.1087 84.4276 33.0371 84.5166 32.9498C84.6034 32.8603 84.6747 32.7552 84.7214 32.641C84.7682 32.5247 84.7926 32.4016 84.7926 32.2763V25.1136C84.7926 24.9883 84.8193 24.8652 84.8661 24.7511C84.9151 24.6369 84.9841 24.5318 85.0731 24.4445C85.1599 24.355 85.2623 24.2856 85.378 24.2386C85.4915 24.1916 85.6139 24.167 85.7386 24.1693H86.0524C86.1815 24.1715 86.3106 24.1984 86.4286 24.2521C86.5465 24.3058 86.6534 24.3818 86.7424 24.4803L94.3545 32.914C94.4435 33.0125 94.5504 33.0908 94.6728 33.1445C94.793 33.1982 94.9243 33.2251 95.0556 33.2251H101.659C101.751 33.2251 101.84 33.1982 101.918 33.1468C101.993 33.0975 102.056 33.0259 102.094 32.9409C102.134 32.8559 102.145 32.7596 102.129 32.6679C102.114 32.5739 102.071 32.4889 102.009 32.4195L95.2203 24.892Z" fill="#FFFEFE"/>
<path d="M107.099 9.07422H111.195C111.444 9.07422 111.684 9.17491 111.86 9.35169C112.036 9.5307 112.136 9.77237 112.136 10.023V32.2765C112.136 32.5294 112.036 32.771 111.86 32.9478C111.684 33.1268 111.444 33.2253 111.195 33.2253H107.099C106.85 33.2253 106.61 33.1246 106.434 32.9478C106.258 32.7688 106.158 32.5271 106.158 32.2765V10.0252C106.158 9.77237 106.258 9.53294 106.434 9.35393C106.61 9.17715 106.85 9.07646 107.099 9.07422Z" fill="#FFFEFE"/>
<path d="M121.665 16.0647V17.1813C121.665 17.4341 121.765 17.6735 121.941 17.8526C122.117 18.0316 122.357 18.13 122.606 18.1323H128.467C128.716 18.1323 128.956 18.233 129.132 18.4097C129.308 18.5865 129.408 18.8304 129.408 19.081V23.2185C129.408 23.3438 129.384 23.4668 129.337 23.5832C129.29 23.6996 129.221 23.8025 129.132 23.892C129.045 23.9815 128.941 24.0509 128.827 24.0979C128.714 24.1449 128.591 24.1695 128.467 24.1695H122.606C122.357 24.1695 122.117 24.2702 121.941 24.4469C121.765 24.626 121.665 24.8676 121.665 25.1182V26.2348C121.665 26.4877 121.765 26.7271 121.941 26.9061C122.117 27.0851 122.357 27.1836 122.606 27.1858H138.658C138.908 27.1858 139.148 27.2865 139.324 27.4633C139.5 27.6423 139.6 27.884 139.6 28.1346V32.272C139.6 32.5249 139.5 32.7666 139.324 32.9433C139.148 33.1223 138.908 33.2208 138.658 33.2208H116.626C116.376 33.2208 116.136 33.1201 115.96 32.9433C115.784 32.7643 115.684 32.5227 115.684 32.272V10.023C115.684 9.77013 115.784 9.52846 115.96 9.35169C116.136 9.17267 116.376 9.07422 116.626 9.07422H138.658C138.908 9.07422 139.148 9.17491 139.324 9.35169C139.5 9.5307 139.6 9.77237 139.6 10.023V14.1582C139.6 14.411 139.502 14.6527 139.324 14.8317C139.148 15.0107 138.908 15.1114 138.658 15.1114H122.606C122.357 15.1114 122.117 15.2121 121.941 15.3889C121.763 15.5701 121.665 15.8118 121.665 16.0647Z" fill="#FFFEFE"/>
<path d="M149.113 16.6371C149.113 17.4718 149.382 17.662 149.763 17.8432C150.11 17.9954 150.479 18.0894 150.855 18.1185H159.507C161.377 18.0133 163.213 18.6354 164.642 19.8594C165.39 20.5732 165.973 21.4436 166.356 22.4081C166.739 23.3725 166.91 24.4108 166.856 25.4468C166.894 26.4672 166.725 27.4853 166.358 28.4386C165.991 29.3918 165.436 30.2578 164.726 30.985C164.016 31.7123 163.166 32.2873 162.229 32.67C161.292 33.0526 160.286 33.2406 159.273 33.216L144.082 33.2428C143.833 33.2428 143.593 33.1421 143.417 32.9653C143.241 32.7863 143.141 32.5447 143.141 32.294V28.1588C143.141 28.0335 143.165 27.9105 143.212 27.7941C143.259 27.6777 143.328 27.5726 143.417 27.4853C143.504 27.3958 143.608 27.3264 143.722 27.2772C143.835 27.2302 143.958 27.2034 144.082 27.2034L159.249 27.1765C160.891 27.1094 160.891 25.9838 160.891 25.4356C160.936 25.053 160.854 24.6681 160.658 24.3369C160.431 24.1937 160.166 24.1243 159.899 24.1378L159.705 24.1669L159.618 24.149H150.858C149.6 24.1221 148.36 23.8312 147.219 23.2987C145.963 22.7169 144.906 21.7748 144.178 20.5866C143.453 19.4007 143.09 18.0223 143.134 16.6282C143.074 15.2565 143.41 13.896 144.103 12.7145C144.795 11.533 145.812 10.5776 147.029 9.96891C148.14 9.4095 149.358 9.09623 150.6 9.05371H166.082C166.331 9.05371 166.572 9.15441 166.747 9.33118C166.923 9.51019 167.023 9.75186 167.023 10.0025V14.1466C167.023 14.3995 166.923 14.6411 166.747 14.8179C166.572 14.9969 166.331 15.0954 166.082 15.0954H150.691C150.159 15.1222 149.11 15.1961 149.113 16.6304" fill="#FFFEFE"/>
<path d="M200.673 0.763184H189.453C188.836 0.763184 188.244 1.01156 187.81 1.45238C187.374 1.8932 187.129 2.48842 187.129 3.11049V9.81899C187.129 10.4411 187.374 11.0385 187.81 11.4771C188.244 11.9179 188.836 12.1641 189.453 12.1663H190.977C191.171 12.1663 191.356 12.2446 191.491 12.3811C191.627 12.5198 191.705 12.7056 191.705 12.9025V39.1928C191.705 39.8148 191.95 40.4123 192.386 40.8531C192.822 41.2939 193.412 41.5401 194.031 41.5423H200.673C201.287 41.5423 201.881 41.2939 202.318 40.8531C202.752 40.4123 202.999 39.8171 202.999 39.1928V3.11049C202.999 2.48842 202.752 1.89096 202.318 1.45014C201.881 1.01156 201.289 0.763184 200.673 0.763184Z" fill="#FFFEFE"/>
<path d="M227.357 0.763184C223.364 0.763184 219.463 1.95809 216.14 4.19799C212.819 6.43789 210.232 9.62208 208.703 13.3478C207.176 17.0735 206.776 21.1729 207.555 25.1268C208.334 29.0808 210.255 32.7147 213.079 35.5655C215.901 38.4163 219.498 40.3586 223.416 41.1462C227.331 41.9339 231.388 41.5311 235.079 39.9894C238.767 38.4476 241.921 35.8363 244.142 32.482C246.361 29.13 247.545 25.1895 247.547 21.1572C247.534 15.7533 245.406 10.5731 241.62 6.75116C237.839 2.93148 232.708 0.77661 227.357 0.763184ZM236.258 21.1483C236.254 23.4956 235.339 25.7489 233.714 27.4271C232.089 29.1054 229.879 30.0765 227.555 30.1347H227.36C225.601 30.1347 223.881 29.6066 222.416 28.6198C220.954 27.633 219.812 26.23 219.14 24.5875C218.468 22.9451 218.29 21.1393 218.635 19.3962C218.98 17.653 219.825 16.0531 221.07 14.7955C222.314 13.538 223.901 12.6832 225.626 12.3364C227.351 11.9895 229.14 12.1663 230.765 12.8465C232.392 13.5268 233.781 14.677 234.758 16.156C235.735 17.6329 236.258 19.3716 236.258 21.1483Z" fill="#FFFEFE"/>
<path d="M271.169 20.8171C271.069 20.9625 271.013 21.137 271.013 21.3161C271.013 21.4951 271.069 21.6696 271.169 21.8151L277.301 30.7948L278.537 32.6073C278.643 32.7572 278.708 32.934 278.726 33.1175C278.744 33.301 278.712 33.4867 278.634 33.6567C278.559 33.8246 278.439 33.97 278.287 34.0752C278.136 34.1804 277.96 34.2453 277.778 34.2587L267.681 34.5406C267.519 34.5429 267.361 34.5071 267.216 34.431C267.072 34.3571 266.949 34.2475 266.858 34.1132L265.04 31.4638C264.948 31.3833 264.837 31.3206 264.721 31.2848C264.603 31.249 264.481 31.2378 264.358 31.2535C264.236 31.2692 264.118 31.3094 264.013 31.3743C263.909 31.4392 263.818 31.5243 263.746 31.6272L256.682 41.9204C256.602 42.0368 256.497 42.133 256.372 42.1979C256.25 42.265 256.112 42.2986 255.972 42.2986H245.357C245.199 42.2986 245.045 42.2561 244.907 42.1733C244.772 42.0905 244.663 41.9719 244.589 41.8309C244.516 41.6877 244.48 41.5288 244.491 41.3677C244.5 41.2066 244.554 41.0522 244.645 40.9202L257.741 21.8151C257.824 21.6965 257.875 21.56 257.89 21.4167C257.906 21.2735 257.888 21.1281 257.837 20.9938L250.341 10.0718C250.232 9.92189 250.167 9.74736 250.149 9.56163C250.131 9.37814 250.163 9.19242 250.238 9.02459C250.314 8.85677 250.434 8.71132 250.583 8.60615C250.732 8.49874 250.906 8.43609 251.088 8.42042L261.274 8.13848C261.436 8.13624 261.592 8.17204 261.734 8.24812C261.877 8.32197 261.997 8.43161 262.088 8.56587L263.811 11.0944C263.893 11.1839 263.989 11.2555 264.1 11.3048C264.212 11.354 264.332 11.3786 264.45 11.3764C264.59 11.3764 264.728 11.3406 264.853 11.2757C264.977 11.2085 265.082 11.1146 265.162 10.9982L272.451 0.380514C272.531 0.25968 272.638 0.163459 272.765 0.0963295C272.892 0.0291997 273.032 -0.00212585 273.175 0.000111806H283.783C283.941 -0.00212585 284.096 0.0403875 284.232 0.120943C284.368 0.203737 284.482 0.320096 284.555 0.463306C284.628 0.604279 284.664 0.76539 284.653 0.924264C284.644 1.08314 284.588 1.23754 284.499 1.36956L271.169 20.8171Z" fill="#FFFEFE"/>
<path d="M183.525 19.6919L175.288 14.8876C175.034 14.7399 174.747 14.6616 174.453 14.6616C174.159 14.6616 173.872 14.7399 173.619 14.8876C173.365 15.0353 173.156 15.2479 173.009 15.5052C172.862 15.7603 172.786 16.0512 172.786 16.3466V25.9529C172.786 26.2482 172.862 26.5391 173.009 26.7942C173.156 27.0493 173.365 27.2641 173.619 27.4118C173.872 27.5595 174.159 27.6378 174.453 27.6378C174.747 27.6378 175.034 27.5595 175.288 27.4118L183.525 22.6075C183.779 22.4599 183.991 22.2473 184.138 21.9922C184.282 21.7371 184.36 21.4462 184.36 21.1508C184.36 20.8555 184.282 20.5646 184.138 20.3095C183.991 20.0521 183.779 19.8396 183.525 19.6919Z" fill="#FFFEFE"/>
</svg>
