<svg width="17" height="16" viewBox="0 0 17 16" fill="none" xmlns="http://www.w3.org/2000/svg">
<g id="star" clip-path="url(#clip0_2345_33)">
<path id="Icon" fill-rule="evenodd" clip-rule="evenodd" d="M7.10736 1.45607C7.61028 0.198864 9.38993 0.198894 9.89279 1.45613L11.1936 4.70829L14.7225 4.92885C16.0426 5.01136 16.6176 6.63789 15.6425 7.53166L12.9556 9.99464L13.8243 13.2521C14.1676 14.5394 12.7875 15.602 11.6307 14.941L8.50008 13.152L5.36916 14.941C4.21242 15.602 2.83234 14.5394 3.17562 13.2522L4.04429 9.99464L1.3574 7.53166C0.382378 6.63789 0.957307 5.01136 2.27742 4.92885L5.80639 4.70829L7.10736 1.45607ZM8.50004 3.35947L7.54588 5.74471C7.3307 6.28263 6.82498 6.64853 6.24675 6.68467L3.57533 6.85163L5.61905 8.72504C6.03083 9.1025 6.19875 9.67752 6.05481 10.2173L5.41664 12.6104L7.7559 11.2737C8.21705 11.0102 8.78317 11.0102 9.24431 11.2737L11.5833 12.6103L10.9451 10.2173C10.8012 9.67752 10.9691 9.1025 11.3809 8.72504L13.4246 6.85163L10.7532 6.68467C10.1749 6.64853 9.66921 6.2826 9.45404 5.74465L8.50004 3.35947Z" fill="#666666"/>
</g>
<defs>
<clipPath id="clip0_2345_33">
<rect width="16" height="16" fill="white" transform="translate(0.5)"/>
</clipPath>
</defs>
</svg>
